<svg width="103" height="142" viewBox="0 0 103 142" fill="none" xmlns="http://www.w3.org/2000/svg">
<path fill-rule="evenodd" clip-rule="evenodd" d="M33.8184 122.127C40.0417 125.53 45.3594 122.97 50.6305 120.11C56.001 124.481 62.2555 124.716 69.3255 121.142C70.351 125.58 70.1903 130.185 68.7475 133.175C66.9725 136.854 60.8967 140.478 56.049 141.475L57.9991 137.217C56.4976 138.874 53.6912 140.5 51.4544 141.4C50.1987 140.941 49.2297 140.587 48.1323 139.955C46.9354 139.267 45.8308 138.478 44.8138 137.594L46.091 141.152C39.7046 140.401 37.4259 138.115 35.0729 134.74C32.9129 131.645 32.1813 127.691 33.8184 122.127Z" fill="#414141"/>
<path d="M17.312 41.5902C15.5214 37.4382 16.187 33.1362 16.8587 28.7946C18.4885 18.2646 27.9764 7.86642 42.8948 6.10352e-05C40.0068 3.32458 27.691 12.3663 33.0843 26.9225C33.7212 28.6423 33.4453 20.8839 37.9776 15.4426C44.0857 8.1087 54.136 4.48074 51.9904 5.88395C43.8842 11.1838 46.4004 23.7359 46.4004 23.7359C47.102 21.8686 48.4021 20.0768 50.4074 18.3749C52.156 16.8902 54.4395 15.4726 57.3287 14.1329C55.2538 16.9345 54.256 19.4699 54.2967 21.7474C54.3387 24.1245 54.9048 26.3036 57.7664 28.0511C70.2849 33.743 72.5541 37.7128 79.112 39.6173C86.0441 41.6322 92.59 46.2808 92.59 56.5722V72.5232C92.59 76.09 93.3335 78.4179 94.8195 79.508C96.3055 80.5982 98.7329 81.1104 102.102 81.0444V89.3665C98.7329 89.3005 96.3055 89.8282 94.8195 90.952C93.3335 92.0746 92.59 94.3857 92.59 97.8865V113.837C92.59 126.057 86.3151 131.671 73.7666 130.681V122.359C77.3993 122.754 80.0079 122.342 81.5934 121.12C83.1777 119.898 83.9704 117.47 83.9704 113.837V97.8865C83.9704 91.2818 86.3487 87.0542 91.104 85.2048C86.3487 83.4214 83.9704 79.195 83.9704 72.5232V56.5722C83.9704 52.9394 83.1621 50.512 81.543 49.2899C79.9491 48.0858 78.1105 48.1254 73.9237 48.0342C73.8709 48.033 29.1433 48.0522 29.1433 48.0522C25.0476 48.0186 22.9021 48.0678 21.3165 49.2899C19.731 50.512 18.9383 52.9394 18.9383 56.5722V72.5232C18.9383 79.1279 16.56 83.3555 11.8047 85.2048C16.56 86.9882 18.9383 91.2159 18.9383 97.8865V113.837C18.9383 117.47 19.7478 119.898 21.3657 121.12C22.9836 122.342 25.5765 122.754 29.1433 122.359V130.681C16.5936 131.671 10.3187 126.057 10.3187 113.837V97.8865C10.3187 94.3197 9.57518 91.9918 8.08922 90.9016C6.60326 89.8126 4.17581 89.3005 0.808105 89.3665V81.0444C4.17581 81.1104 6.60326 80.5815 8.08922 79.4589C9.57518 78.3363 10.3187 76.024 10.3187 72.5232V56.5722C10.3187 49.1244 12.6502 44.1304 17.312 41.5902Z" fill="#414141"/>
</svg>
