<svg width="382" height="31" viewBox="0 0 1589 175" version="1.1" xmlns="http://www.w3.org/2000/svg" xmlns:xlink="http://www.w3.org/1999/xlink" xml:space="preserve" xmlns:serif="http://www.serif.com/" style="fill-rule:evenodd;clip-rule:evenodd;stroke-linejoin:round;stroke-miterlimit:2;">
    <g transform="matrix(1,0,0,1,-426.206,-1984.74)">
        <g>
            <g transform="matrix(5.12081,0,0,5.12081,-564.906,319.072)">
                <path d="M486.928,359.265L492.993,359.265L502.63,348.958L503.676,347.883L502.63,346.816L493.51,336.955L487.304,336.955L497.647,347.887L486.928,359.265Z" style="fill:rgb(65,65,65);fill-rule:nonzero;"/>
            </g>
            <g transform="matrix(5.12081,0,0,5.12081,-42.8602,322.042)">
                <path d="M108.347,336.375L102.283,336.375L92.646,346.682L91.6,347.757L92.646,348.824L101.766,358.685L107.971,358.685L97.629,347.753L108.347,336.375Z" style="fill:rgb(255,68,0);fill-rule:nonzero;"/>
            </g>
            <g transform="matrix(4.70429,0,0,4.70429,-2500.79,-1897.77)">
                <path d="M659.033,862.264C657.067,862.264 655.392,861.948 654.008,861.314C652.625,860.681 651.367,859.648 650.233,858.214L652.383,856.364C653.417,857.531 654.433,858.356 655.433,858.839C656.433,859.323 657.633,859.564 659.033,859.564C661.033,859.564 662.55,859.214 663.583,858.514C664.617,857.814 665.133,856.798 665.133,855.464C665.133,854.631 664.933,853.964 664.533,853.464C664.133,852.964 663.433,852.531 662.433,852.164C661.433,851.798 659.917,851.431 657.883,851.064C653.217,850.231 650.883,847.998 650.883,844.364C650.883,842.264 651.642,840.623 653.158,839.439C654.675,838.256 656.767,837.664 659.433,837.664C661.333,837.664 662.992,837.989 664.408,838.639C665.825,839.289 666.9,840.231 667.633,841.464L665.483,843.264C664.717,842.264 663.842,841.531 662.858,841.064C661.875,840.598 660.733,840.364 659.433,840.364C657.767,840.364 656.458,840.714 655.508,841.414C654.558,842.114 654.083,843.081 654.083,844.314C654.083,845.414 654.475,846.264 655.258,846.864C656.042,847.464 657.417,847.964 659.383,848.364C661.683,848.864 663.475,849.406 664.758,849.989C666.042,850.573 666.958,851.298 667.508,852.164C668.058,853.031 668.333,854.131 668.333,855.464C668.333,857.698 667.542,859.389 665.958,860.539C664.375,861.689 662.067,862.264 659.033,862.264Z" style="fill:rgb(65,65,65);fill-rule:nonzero;"/>
                <path d="M700.983,837.664C703.217,837.664 704.95,838.364 706.183,839.764C707.417,841.164 708.033,843.131 708.033,845.664L708.033,861.714L704.683,861.714L704.683,846.164C704.683,844.298 704.283,842.864 703.483,841.864C702.683,840.864 701.55,840.364 700.083,840.364C698.417,840.364 696.942,841.056 695.658,842.439C694.375,843.823 693.5,845.681 693.033,848.014L693.033,861.714L689.683,861.714L689.683,846.164C689.683,844.298 689.292,842.864 688.508,841.864C687.725,840.864 686.6,840.364 685.133,840.364C683.467,840.364 681.983,841.073 680.683,842.489C679.383,843.906 678.517,845.748 678.083,848.014L678.083,861.714L674.733,861.714L674.733,842.464C674.733,841.864 674.625,841.373 674.408,840.989C674.192,840.606 673.783,840.164 673.183,839.664L675.383,837.664C676.317,838.164 676.992,838.781 677.408,839.514C677.825,840.248 678.033,841.164 678.033,842.264L678.033,843.064C678.833,841.331 679.925,839.998 681.308,839.064C682.692,838.131 684.267,837.664 686.033,837.664C687.9,837.664 689.417,838.181 690.583,839.214C691.75,840.248 692.483,841.748 692.783,843.714C693.35,841.848 694.383,840.373 695.883,839.289C697.383,838.206 699.083,837.664 700.983,837.664Z" style="fill:rgb(65,65,65);fill-rule:nonzero;"/>
                <path d="M724.733,862.264C721.6,862.264 719.158,861.473 717.408,859.889C715.658,858.306 714.783,856.081 714.783,853.214L714.783,846.714C714.783,843.848 715.658,841.623 717.408,840.039C719.158,838.456 721.6,837.664 724.733,837.664C727.867,837.664 730.308,838.456 732.058,840.039C733.808,841.623 734.683,843.848 734.683,846.714L734.683,853.214C734.683,856.081 733.808,858.306 732.058,859.889C730.308,861.473 727.867,862.264 724.733,862.264ZM724.733,859.564C726.833,859.564 728.458,859.014 729.608,857.914C730.758,856.814 731.333,855.248 731.333,853.214L731.333,846.714C731.333,844.681 730.758,843.114 729.608,842.014C728.458,840.914 726.833,840.364 724.733,840.364C722.633,840.364 721.008,840.914 719.858,842.014C718.708,843.114 718.133,844.681 718.133,846.714L718.133,853.214C718.133,855.248 718.708,856.814 719.858,857.914C721.008,859.014 722.633,859.564 724.733,859.564Z" style="fill:rgb(65,65,65);fill-rule:nonzero;"/>
                <path d="M744.433,862.264C743.4,861.698 742.692,861.056 742.308,860.339C741.925,859.623 741.733,858.631 741.733,857.364L741.733,830.264C741.733,829.631 741.625,829.123 741.408,828.739C741.192,828.356 740.783,827.931 740.183,827.464L742.383,825.464C743.417,826.031 744.125,826.673 744.508,827.389C744.892,828.106 745.083,829.098 745.083,830.364L745.083,857.464C745.083,858.064 745.192,858.556 745.408,858.939C745.625,859.323 746.033,859.764 746.633,860.264L744.433,862.264Z" style="fill:rgb(65,65,65);fill-rule:nonzero;"/>
                <path d="M771.383,857.464C771.383,858.064 771.492,858.556 771.708,858.939C771.925,859.323 772.333,859.764 772.933,860.264L770.683,862.264C769.85,861.798 769.233,861.264 768.833,860.664C768.433,860.064 768.2,859.281 768.133,858.314C767.267,859.581 766.083,860.556 764.583,861.239C763.083,861.923 761.4,862.264 759.533,862.264C757,862.264 755.05,861.673 753.683,860.489C752.317,859.306 751.633,857.598 751.633,855.364C751.633,853.298 752.35,851.681 753.783,850.514C755.217,849.348 757.383,848.598 760.283,848.264L764.183,847.814C765.283,847.681 766.108,847.514 766.658,847.314C767.208,847.114 767.583,846.823 767.783,846.439C767.983,846.056 768.067,845.514 768.033,844.814C767.733,841.714 765.567,840.164 761.533,840.164C760.033,840.164 758.75,840.406 757.683,840.889C756.617,841.373 755.7,842.131 754.933,843.164L752.633,841.464C754.2,838.931 757.167,837.664 761.533,837.664C764.733,837.664 767.175,838.348 768.858,839.714C770.542,841.081 771.383,843.048 771.383,845.614L771.383,857.464ZM760.283,859.664C762.617,859.664 764.5,859.064 765.933,857.864C767.367,856.664 768.083,855.081 768.083,853.114L768.083,849.064C767.683,849.364 767.2,849.589 766.633,849.739C766.067,849.889 765.283,850.014 764.283,850.114L760.583,850.514C758.683,850.748 757.242,851.273 756.258,852.089C755.275,852.906 754.783,853.981 754.783,855.314C754.783,858.214 756.617,859.664 760.283,859.664Z" style="fill:rgb(65,65,65);fill-rule:nonzero;"/>
                <path d="M790.233,837.664C791.467,837.664 792.55,837.964 793.483,838.564L792.583,841.614C791.617,841.048 790.55,840.764 789.383,840.764C787.75,840.764 786.317,841.531 785.083,843.064C783.85,844.598 782.967,846.714 782.433,849.414L782.433,861.714L779.083,861.714L779.083,842.464C779.083,841.864 778.975,841.373 778.758,840.989C778.542,840.606 778.133,840.164 777.533,839.664L779.783,837.664C780.783,838.231 781.475,838.873 781.858,839.589C782.242,840.306 782.433,841.298 782.433,842.564L782.433,843.864C783.2,841.898 784.258,840.373 785.608,839.289C786.958,838.206 788.5,837.664 790.233,837.664Z" style="fill:rgb(65,65,65);fill-rule:nonzero;"/>
                <path d="M806.583,859.564C808.017,859.564 809.283,859.348 810.383,858.914C811.483,858.481 812.5,857.781 813.433,856.814L815.533,858.764C814.467,859.964 813.2,860.848 811.733,861.414C810.267,861.981 808.483,862.264 806.383,862.264C803.183,862.264 800.692,861.506 798.908,859.989C797.125,858.473 796.233,856.348 796.233,853.614L796.233,846.014C796.233,843.448 797.108,841.423 798.858,839.939C800.608,838.456 803.017,837.714 806.083,837.714C809.217,837.714 811.625,838.498 813.308,840.064C814.992,841.631 815.833,843.848 815.833,846.714C815.833,848.548 815.492,849.806 814.808,850.489C814.125,851.173 812.85,851.514 810.983,851.514L799.583,851.514L799.583,853.614C799.583,855.614 800.158,857.106 801.308,858.089C802.458,859.073 804.217,859.564 806.583,859.564ZM806.033,840.364C804.033,840.364 802.458,840.889 801.308,841.939C800.158,842.989 799.583,844.414 799.583,846.214L799.583,849.064L809.583,849.064C810.717,849.064 811.483,848.873 811.883,848.489C812.283,848.106 812.483,847.381 812.483,846.314C812.483,844.448 811.917,842.989 810.783,841.939C809.65,840.889 808.067,840.364 806.033,840.364Z" style="fill:rgb(65,65,65);fill-rule:nonzero;"/>
                <path d="M832.783,846.614C834.45,846.881 835.758,847.548 836.708,848.614C837.658,849.681 838.417,851.281 838.983,853.414L841.133,861.714L837.683,861.714L835.533,853.414C835.167,851.981 834.592,850.939 833.808,850.289C833.025,849.639 831.85,849.248 830.283,849.114L825.233,854.164L825.233,861.714L821.883,861.714L821.883,830.314C821.883,829.681 821.783,829.181 821.583,828.814C821.383,828.448 820.967,827.998 820.333,827.464L822.633,825.514C823.6,826.048 824.275,826.681 824.658,827.414C825.042,828.148 825.233,829.148 825.233,830.414L825.233,850.064L836.983,838.214L841.183,838.214L832.783,846.614Z" style="fill:rgb(65,65,65);fill-rule:nonzero;"/>
                <path d="M849.333,861.914C848.667,861.914 848.067,861.648 847.533,861.114C847,860.581 846.733,859.981 846.733,859.314C846.733,858.614 847,857.998 847.533,857.464C848.067,856.931 848.667,856.664 849.333,856.664C850.033,856.664 850.658,856.931 851.208,857.464C851.758,857.998 852.033,858.614 852.033,859.314C852.033,859.981 851.758,860.581 851.208,861.114C850.658,861.648 850.033,861.914 849.333,861.914Z" style="fill:rgb(255,68,0);fill-rule:nonzero;"/>
                <path d="M867.233,862.214C865,862.214 863.058,861.623 861.408,860.439C859.758,859.256 858.5,857.673 857.633,855.689C856.767,853.706 856.333,851.548 856.333,849.214C856.333,846.714 856.825,844.456 857.808,842.439C858.792,840.423 860.217,838.831 862.083,837.664C863.95,836.498 866.15,835.914 868.683,835.914C869.95,835.914 871.717,836.048 873.983,836.314L873.983,825.314L877.833,825.314L877.833,854.164C877.833,856.731 878.55,858.664 879.983,859.964L877.533,862.314C876.3,861.514 875.367,860.331 874.733,858.764C873.867,859.931 872.767,860.798 871.433,861.364C870.1,861.931 868.7,862.214 867.233,862.214ZM867.383,858.514C868.75,858.514 869.95,858.189 870.983,857.539C872.017,856.889 872.817,855.998 873.383,854.864C873.783,854.064 873.983,853.131 873.983,852.064L873.983,840.064C872.417,839.864 871.275,839.739 870.558,839.689C869.842,839.639 869.083,839.614 868.283,839.614C865.817,839.614 863.867,840.506 862.433,842.289C861,844.073 860.283,846.331 860.283,849.064C860.283,851.764 860.908,854.014 862.158,855.814C863.408,857.614 865.15,858.514 867.383,858.514Z" style="fill:rgb(255,68,0);fill-rule:nonzero;"/>
                <path d="M887.833,850.664C887.933,852.731 888.492,854.564 889.508,856.164C890.525,857.764 892.4,858.564 895.133,858.564C896.567,858.564 897.9,858.339 899.133,857.889C900.367,857.439 901.667,856.748 903.033,855.814L904.933,858.914C903.7,859.914 902.183,860.723 900.383,861.339C898.583,861.956 896.767,862.264 894.933,862.264C892.6,862.264 890.583,861.723 888.883,860.639C887.183,859.556 885.883,858.073 884.983,856.189C884.083,854.306 883.633,852.164 883.633,849.764C883.633,847.364 884.075,845.098 884.958,842.964C885.842,840.831 887.142,839.114 888.858,837.814C890.575,836.514 892.617,835.864 894.983,835.864C896.917,835.864 898.683,836.331 900.283,837.264C901.883,838.198 903.15,839.489 904.083,841.139C905.017,842.789 905.483,844.614 905.483,846.614C905.483,847.448 905.417,848.798 905.283,850.664L887.833,850.664ZM901.433,846.964L901.433,846.464C901.433,845.164 901.142,843.989 900.558,842.939C899.975,841.889 899.192,841.064 898.208,840.464C897.225,839.864 896.133,839.564 894.933,839.564C893.233,839.564 891.758,840.198 890.508,841.464C889.258,842.731 888.433,844.564 888.033,846.964L901.433,846.964Z" style="fill:rgb(255,68,0);fill-rule:nonzero;"/>
                <path d="M911.033,841.264C910.767,840.664 910.367,840.106 909.833,839.589C909.3,839.073 908.767,838.748 908.233,838.614L910.433,835.264C912.5,836.431 914.05,838.398 915.083,841.164L920.583,855.714L927.633,836.314L931.733,836.314L922.433,861.764L918.783,861.764L911.033,841.264Z" style="fill:rgb(255,68,0);fill-rule:nonzero;"/>
            </g>
        </g>
    </g>
</svg>
