<svg width="382" height="31" viewBox="0 0 382 31" fill="none" xmlns="http://www.w3.org/2000/svg">
<path d="M179.231 30.7336C176.297 30.7336 173.806 30.0995 171.757 28.8313C169.709 27.5622 168.278 25.825 167.465 23.6187L171.779 21.2196C172.999 24.4744 175.527 26.1013 179.361 26.1013C181.25 26.1013 182.666 25.749 183.611 25.0463C184.555 24.3427 185.027 23.4259 185.027 22.2959C185.027 21.1093 184.518 20.2064 183.501 19.5862C182.485 18.966 180.683 18.2828 178.098 17.5384C176.645 17.125 175.469 16.7384 174.568 16.3806C173.668 16.0218 172.716 15.5185 171.714 14.8705C170.711 14.2225 169.963 13.416 169.469 12.451C168.975 11.486 168.729 10.355 168.729 9.05904C168.729 6.49399 169.687 4.46105 171.605 2.95743C173.522 1.45474 175.832 0.702958 178.534 0.702958C180.974 0.702958 183.109 1.26842 184.94 2.39938C186.77 3.53034 188.179 5.08771 189.166 7.07338L184.94 9.39C183.662 6.68776 181.526 5.33616 178.534 5.33616C177.081 5.33616 175.919 5.66062 175.047 6.30861C174.176 6.95659 173.74 7.83167 173.74 8.93481C173.74 10.0102 174.183 10.8584 175.069 11.4786C175.956 12.0997 177.56 12.7541 179.884 13.4438C181.047 13.8016 181.897 14.0705 182.434 14.2503C182.971 14.4292 183.727 14.712 184.7 15.0985C185.673 15.4842 186.407 15.8698 186.901 16.2564C187.395 16.642 187.925 17.125 188.492 17.7044C189.058 18.2828 189.458 18.9447 189.69 19.6891C189.922 20.4344 190.039 21.2752 190.039 22.2125C190.039 24.8322 189.043 26.9078 187.054 28.4383C185.063 29.9688 182.456 30.7336 179.231 30.7336V30.7336Z" fill="#FF4400"/>
<path d="M217.885 8.97646C220.355 8.97646 222.344 9.73476 223.855 11.2514C225.366 12.768 226.121 14.8083 226.121 17.3734V30.1958H221.414V17.6626C221.414 16.2285 221.037 15.1189 220.282 14.3328C219.526 13.5466 218.495 13.1536 217.187 13.1536C215.735 13.1536 214.58 13.6087 213.723 14.5191C212.866 15.4285 212.437 16.794 212.437 18.6137V30.1958H207.731V17.6626C207.731 16.2285 207.376 15.1189 206.664 14.3328C205.952 13.5466 204.942 13.1536 203.635 13.1536C202.211 13.1536 201.049 13.6162 200.149 14.5395C199.248 15.4637 198.798 16.8218 198.798 18.6137V30.1958H194.092V9.51411H198.798V11.9957C200.192 9.98225 202.27 8.97646 205.029 8.97646C207.818 8.97646 209.881 10.0657 211.217 12.2442C212.67 10.0657 214.893 8.97646 217.885 8.97646V8.97646Z" fill="#FF4400"/>
<path d="M241.461 30.7336C238.265 30.7336 235.549 29.686 233.312 27.5901C231.075 25.4941 229.956 22.9161 229.956 19.8551C229.956 16.7941 231.075 14.216 233.312 12.12C235.549 10.0241 238.265 8.97654 241.461 8.97654C244.685 8.97654 247.409 10.0241 249.632 12.12C251.854 14.216 252.965 16.7941 252.965 19.8551C252.965 22.9161 251.854 25.4941 249.632 27.5901C247.409 29.686 244.685 30.7336 241.461 30.7336ZM236.624 24.5291C237.931 25.7703 239.543 26.3905 241.461 26.3905C243.378 26.3905 244.99 25.7703 246.298 24.5291C247.605 23.2878 248.259 21.7304 248.259 19.8551C248.259 17.9797 247.605 16.4214 246.298 15.181C244.99 13.9398 243.378 13.3196 241.461 13.3196C239.543 13.3196 237.931 13.9398 236.624 15.181C235.316 16.4214 234.662 17.9797 234.662 19.8551C234.662 21.7304 235.316 23.2878 236.624 24.5291Z" fill="#FF4400"/>
<path d="M257.236 30.1958H261.943V2.86073e-06H257.236V30.1958Z" fill="#FF4400"/>
<path d="M284.647 9.5142H289.353V30.1959H284.647V27.2174C282.874 29.5618 280.333 30.7336 277.02 30.7336C274.028 30.7336 271.471 29.6786 269.351 27.5697C267.23 25.4598 266.17 22.8882 266.17 19.8551C266.17 16.7941 267.23 14.216 269.351 12.12C271.471 10.0241 274.028 8.97654 277.02 8.97654C280.333 8.97654 282.874 10.1344 284.647 12.451V9.5142ZM272.837 24.6116C274.145 25.8528 275.786 26.473 277.761 26.473C279.737 26.473 281.378 25.8454 282.686 24.5912C283.993 23.336 284.647 21.7573 284.647 19.8551C284.647 17.9519 283.993 16.3732 282.686 15.1189C281.378 13.8638 279.737 13.2371 277.761 13.2371C275.786 13.2371 274.145 13.8638 272.837 15.1189C271.53 16.3732 270.876 17.9519 270.876 19.8551C270.876 21.7573 271.53 23.3434 272.837 24.6116V24.6116Z" fill="#FF4400"/>
<path d="M299.55 12.9886C300.742 10.4235 302.979 9.14147 306.262 9.14147V13.9814C304.461 13.8711 302.891 14.278 301.556 15.2013C300.219 16.1256 299.55 17.6487 299.55 19.7725V30.1958H294.844V9.51411H299.55V12.9886Z" fill="#FF4400"/>
<path d="M312.45 21.7573C312.798 23.3295 313.598 24.5365 314.846 25.3773C316.096 26.2181 317.621 26.6389 319.422 26.6389C321.921 26.6389 323.795 25.7842 325.044 24.0739L328.922 26.2255C326.772 29.2309 323.592 30.7336 319.378 30.7336C315.834 30.7336 312.973 29.7064 310.794 27.6522C308.615 25.5979 307.526 22.9986 307.526 19.8551C307.526 16.7663 308.6 14.1808 310.751 12.0996C312.9 10.0176 315.66 8.97654 319.03 8.97654C322.226 8.97654 324.848 10.038 326.897 12.1608C328.944 14.2846 329.969 16.8626 329.969 19.8968C329.969 20.3649 329.91 20.986 329.794 21.7573H312.45ZM312.406 18.1178H325.219C324.899 16.4353 324.166 15.1672 323.018 14.3124C321.87 13.4577 320.526 13.0295 318.986 13.0295C317.243 13.0295 315.791 13.4846 314.628 14.3949C313.467 15.3053 312.726 16.5456 312.406 18.1178Z" fill="#FF4400"/>
<path d="M353.37 30.1958H347.749L338.815 20.6411V30.1958H334.109V1.24146H338.815V18.6554L347.269 9.51411H353.022L343.434 19.6482L353.37 30.1958Z" fill="#FF4400"/>
<path d="M366.474 30.1958H372.097L381.03 20.6411L382 19.6445L381.03 18.6554L372.576 9.51411H366.823L376.411 19.6482L366.474 30.1958Z" fill="white"/>
<path d="M15.5247 10.0519H9.90328L0.969753 19.6066L0 20.6031L0.969753 21.5923L9.42402 30.7336H15.1761L5.58906 20.5994L15.5247 10.0519Z" fill="#FF4400"/>
<path d="M56.2169 1.32396V30.2783H53.9077V4.54997L42.6204 22.3366H42.2283L30.9419 4.54997V30.2783H28.6318V1.32396H31.5083L42.4026 18.4487L53.2977 1.32396H56.2169Z" fill="white"/>
<path d="M65.6733 4.13651C65.3247 4.43965 64.9178 4.59167 64.4534 4.59167C63.9889 4.59167 63.582 4.43315 63.2334 4.11612C62.8848 3.79908 62.7106 3.40605 62.7106 2.93698C62.7106 2.49572 62.8848 2.11655 63.2334 1.79952C63.582 1.48248 63.9889 1.32396 64.4534 1.32396C64.9178 1.32396 65.3247 1.48248 65.6733 1.79952C66.0219 2.11655 66.1961 2.49572 66.1961 2.93698C66.1961 3.40605 66.0219 3.80557 65.6733 4.13651ZM63.3641 30.2783V9.59664H65.5426V30.2783H63.3641Z" fill="white"/>
<path d="M82.2335 30.7336C78.95 30.7336 76.22 29.6999 74.0406 27.6318C71.8621 25.5636 70.7719 22.9986 70.7719 19.9376C70.7719 16.8766 71.8621 14.3124 74.0406 12.2443C76.22 10.1761 78.95 9.14156 82.2335 9.14156C84.3545 9.14156 86.2716 9.6171 87.9856 10.5691C89.6997 11.5203 90.9493 12.8098 91.7335 14.4367L89.9463 15.4285C89.3076 14.1057 88.298 13.0573 86.9177 12.2851C85.5383 11.5129 83.9763 11.1272 82.2335 11.1272C79.6184 11.1272 77.4251 11.9754 75.6526 13.6709C73.8811 15.3674 72.9949 17.4559 72.9949 19.9376C72.9949 22.4192 73.8811 24.5087 75.6526 26.2042C77.4251 27.9006 79.6184 28.7479 82.2335 28.7479C83.9763 28.7479 85.5383 28.3623 86.9177 27.5901C88.298 26.8179 89.3511 25.7703 90.077 24.4465L91.9078 25.4802C91.0364 27.0802 89.7358 28.3548 88.0079 29.3069C86.279 30.258 84.3545 30.7336 82.2335 30.7336Z" fill="white"/>
<path d="M106.681 9.14147C109.266 9.14147 111.322 9.89329 112.847 11.396C114.372 12.8987 115.135 14.9047 115.135 17.4141V30.2783H112.912V17.4141C112.912 15.4841 112.353 13.9536 111.235 12.8226C110.116 11.6926 108.54 11.1271 106.506 11.1271C104.27 11.1271 102.439 11.8298 101.016 13.237C99.5919 14.6433 98.8799 16.6837 98.8799 19.3581V30.2783H96.7014V1.32396H98.8799V13.5262C100.449 10.6034 103.05 9.14147 106.681 9.14147V9.14147Z" fill="white"/>
<path d="M140.454 9.59672H142.677V30.2784H140.454V25.6044C139.524 27.2044 138.246 28.4587 136.619 29.369C134.992 30.2784 133.147 30.7336 131.084 30.7336C127.976 30.7336 125.317 29.6925 123.11 27.6105C120.902 25.5284 119.798 22.9707 119.798 19.9376C119.798 16.9044 120.902 14.3467 123.11 12.2647C125.317 10.1826 127.976 9.14156 131.084 9.14156C133.147 9.14156 134.992 9.59672 136.619 10.507C138.246 11.4164 139.524 12.6716 140.454 14.2707V9.59672ZM124.679 26.1838C126.48 27.8932 128.673 28.7479 131.259 28.7479C133.845 28.7479 136.023 27.8932 137.796 26.1838C139.567 24.4744 140.454 22.3923 140.454 19.9376C140.454 17.4838 139.567 15.4017 137.796 13.6913C136.023 11.9819 133.845 11.1272 131.259 11.1272C128.673 11.1272 126.487 11.9819 124.7 13.6913C122.914 15.4017 122.02 17.4838 122.02 19.9376C122.02 22.3923 122.906 24.4744 124.679 26.1838V26.1838Z" fill="white"/>
<path d="M155.62 11.5406V13.568L152.351 15.6769V30.2783H150.172V17.1249L146.904 19.2348V17.2074L150.172 15.0985V0.0826956H152.351V13.6505L155.62 11.5406Z" fill="white"/>
</svg>
