<svg width="221" height="91" viewBox="0 0 221 91" fill="none" xmlns="http://www.w3.org/2000/svg">
<path fill-rule="evenodd" clip-rule="evenodd" d="M100.498 54.6124C103.281 56.1339 105.659 54.9895 108.016 53.7104C110.418 55.6652 113.215 55.7703 116.376 54.1721C116.835 56.1565 116.763 58.2159 116.118 59.5529C115.324 61.1978 112.607 62.8185 110.439 63.2642L111.311 61.3603C110.64 62.1014 109.385 62.8282 108.385 63.2309C107.823 63.0255 107.39 62.8673 106.899 62.5847C106.364 62.2768 105.87 61.9239 105.415 61.5287L105.986 63.1199C103.131 62.7842 102.112 61.762 101.059 60.2528C100.093 58.8686 99.7663 57.1004 100.498 54.6124Z" fill="white"/>
<path d="M93.1171 18.5983C92.3164 16.7416 92.614 14.8179 92.9144 12.8764C93.6432 8.16764 97.8859 3.51784 104.557 0.00019455C103.266 1.48684 97.7583 5.53007 100.17 12.0392C100.455 12.8083 100.332 9.33894 102.358 6.90571C105.09 3.62618 109.584 2.00385 108.624 2.63133C105 5.00127 106.125 10.6143 106.125 10.6143C106.438 9.77925 107.02 8.97801 107.917 8.21699C108.698 7.55304 109.72 6.91913 111.012 6.32007C110.084 7.57289 109.638 8.70664 109.656 9.72509C109.675 10.7881 109.928 11.7625 111.207 12.5439C116.805 15.0892 117.82 16.8644 120.753 17.7161C123.852 18.6171 126.78 20.6958 126.78 25.2979V32.4308C126.78 34.0258 127.112 35.0667 127.777 35.5542C128.441 36.0418 129.527 36.2708 131.033 36.2413V39.9627C129.527 39.9332 128.441 40.1692 127.777 40.6717C127.112 41.1737 126.78 42.2072 126.78 43.7726V50.9055C126.78 56.37 123.974 58.8805 118.362 58.4375V54.716C119.987 54.893 121.153 54.7085 121.862 54.162C122.571 53.6155 122.925 52.53 122.925 50.9055V43.7726C122.925 40.8192 123.989 38.9287 126.115 38.1017C123.989 37.3042 122.925 35.4143 122.925 32.4308V25.2979C122.925 23.6734 122.564 22.5879 121.84 22.0414C121.127 21.503 120.305 21.5207 118.432 21.4799C118.409 21.4794 98.4078 21.4879 98.4078 21.4879C96.5763 21.4729 95.6168 21.4949 94.9078 22.0414C94.1988 22.5879 93.8443 23.6734 93.8443 25.2979V32.4308C93.8443 35.3842 92.7808 37.2747 90.6544 38.1017C92.7808 38.8992 93.8443 40.7897 93.8443 43.7726V50.9055C93.8443 52.53 94.2063 53.6155 94.9298 54.162C95.6533 54.7085 96.8128 54.893 98.4078 54.716V58.4375C92.7958 58.8805 89.9899 56.37 89.9899 50.9055V43.7726C89.9899 42.1777 89.6574 41.1367 88.9929 40.6492C88.3284 40.1622 87.2429 39.9332 85.7369 39.9627V36.2413C87.2429 36.2708 88.3284 36.0343 88.9929 35.5323C89.6574 35.0303 89.9899 33.9963 89.9899 32.4308V25.2979C89.9899 21.9674 91.0325 19.7342 93.1171 18.5983Z" fill="white"/>
<path d="M103.691 90.7437C101.994 90.7437 100.553 90.3768 99.3674 89.6431C98.1827 88.9089 97.3546 87.9039 96.8842 86.6275L99.3802 85.2395C100.086 87.1225 101.549 88.0637 103.767 88.0637C104.859 88.0637 105.679 87.8599 106.225 87.4534C106.771 87.0463 107.045 86.5159 107.045 85.8622C107.045 85.1757 106.75 84.6533 106.162 84.2945C105.574 83.9358 104.531 83.5405 103.036 83.1098C102.195 82.8706 101.515 82.647 100.993 82.44C100.473 82.2324 99.9219 81.9412 99.3422 81.5663C98.7624 81.1915 98.3296 80.7249 98.0437 80.1666C97.7579 79.6083 97.6152 78.954 97.6152 78.2042C97.6152 76.7202 98.1698 75.5441 99.2794 74.6742C100.388 73.8049 101.725 73.3699 103.288 73.3699C104.7 73.3699 105.935 73.6971 106.994 74.3514C108.053 75.0057 108.868 75.9067 109.439 77.0554L106.994 78.3957C106.255 76.8323 105.019 76.0504 103.288 76.0504C102.447 76.0504 101.775 76.2381 101.271 76.613C100.767 76.9879 100.515 77.4941 100.515 78.1323C100.515 78.7545 100.771 79.2452 101.284 79.604C101.796 79.9633 102.725 80.3419 104.069 80.741C104.742 80.948 105.234 81.1035 105.545 81.2075C105.855 81.311 106.292 81.4746 106.855 81.6983C107.418 81.9214 107.843 82.1445 108.128 82.3681C108.414 82.5912 108.721 82.8706 109.049 83.2058C109.376 83.5405 109.608 83.9234 109.742 84.3541C109.876 84.7853 109.944 85.2717 109.944 85.8139C109.944 87.3295 109.368 88.5303 108.217 89.4157C107.066 90.3012 105.557 90.7437 103.691 90.7437Z" fill="white"/>
<path d="M126.054 78.1565C127.483 78.1565 128.634 78.5952 129.508 79.4726C130.382 80.35 130.819 81.5304 130.819 83.0144V90.4326H128.096V83.1817C128.096 82.352 127.877 81.7101 127.44 81.2553C127.003 80.8005 126.407 80.5731 125.65 80.5731C124.81 80.5731 124.142 80.8364 123.646 81.3631C123.15 81.8892 122.902 82.6792 122.902 83.732V90.4326H120.179V83.1817C120.179 82.352 119.974 81.7101 119.562 81.2553C119.15 80.8005 118.566 80.5731 117.81 80.5731C116.986 80.5731 116.314 80.8407 115.793 81.3749C115.272 81.9096 115.011 82.6953 115.011 83.732V90.4326H112.289V78.4676H115.011V79.9033C115.818 78.7384 117.02 78.1565 118.616 78.1565C120.23 78.1565 121.424 78.7867 122.196 80.047C123.037 78.7867 124.323 78.1565 126.054 78.1565Z" fill="white"/>
<path d="M139.693 90.7437C137.844 90.7437 136.273 90.1376 134.979 88.925C133.685 87.7124 133.037 86.221 133.037 84.4501C133.037 82.6792 133.685 81.1877 134.979 79.9751C136.273 78.7625 137.844 78.1565 139.693 78.1565C141.559 78.1565 143.134 78.7625 144.42 79.9751C145.706 81.1877 146.349 82.6792 146.349 84.4501C146.349 86.221 145.706 87.7124 144.42 88.925C143.134 90.1376 141.559 90.7437 139.693 90.7437ZM136.895 87.1541C137.651 87.8723 138.584 88.231 139.693 88.231C140.803 88.231 141.735 87.8723 142.492 87.1541C143.248 86.436 143.626 85.535 143.626 84.4501C143.626 83.3651 143.248 82.4636 142.492 81.746C141.735 81.0279 140.803 80.6691 139.693 80.6691C138.584 80.6691 137.651 81.0279 136.895 81.746C136.138 82.4636 135.76 83.3651 135.76 84.4501C135.76 85.535 136.138 86.436 136.895 87.1541Z" fill="white"/>
<path d="M148.82 90.4326H151.543V72.9633H148.82V90.4326Z" fill="white"/>
<path d="M164.678 78.4675H167.401V90.4326H164.678V88.7094C163.652 90.0658 162.182 90.7437 160.266 90.7437C158.534 90.7437 157.055 90.1333 155.829 88.9132C154.602 87.6926 153.988 86.2049 153.988 84.4501C153.988 82.6792 154.602 81.1877 155.829 79.9751C157.055 78.7625 158.534 78.1565 160.266 78.1565C162.182 78.1565 163.652 78.8263 164.678 80.1666V78.4675ZM157.845 87.2019C158.602 87.92 159.551 88.2788 160.694 88.2788C161.838 88.2788 162.787 87.9157 163.544 87.1901C164.3 86.4639 164.678 85.5506 164.678 84.4501C164.678 83.349 164.3 82.4357 163.544 81.7101C162.787 80.9839 161.838 80.6214 160.694 80.6214C159.551 80.6214 158.602 80.9839 157.845 81.7101C157.089 82.4357 156.711 83.349 156.711 84.4501C156.711 85.5506 157.089 86.4682 157.845 87.2019Z" fill="white"/>
<path d="M173.3 80.4776C173.989 78.9937 175.283 78.252 177.183 78.252V81.052C176.141 80.9882 175.233 81.2236 174.46 81.7578C173.687 82.2925 173.3 83.1737 173.3 84.4024V90.4326H170.577V78.4676H173.3V80.4776Z" fill="white"/>
<path d="M180.763 85.5506C180.965 86.4601 181.427 87.1584 182.149 87.6449C182.872 88.1313 183.754 88.3748 184.797 88.3748C186.242 88.3748 187.326 87.8803 188.049 86.8908L190.293 88.1356C189.049 89.8743 187.209 90.7437 184.771 90.7437C182.721 90.7437 181.065 90.1494 179.805 88.961C178.544 87.7725 177.914 86.2687 177.914 84.4501C177.914 82.6631 178.536 81.1673 179.78 79.9633C181.024 78.7588 182.62 78.1565 184.57 78.1565C186.419 78.1565 187.936 78.7706 189.121 79.9987C190.305 81.2274 190.898 82.7189 190.898 84.4742C190.898 84.745 190.864 85.1044 190.797 85.5506H180.763ZM180.738 83.445H188.15C187.965 82.4716 187.541 81.738 186.877 81.2435C186.213 80.749 185.435 80.5012 184.544 80.5012C183.536 80.5012 182.696 80.7646 182.023 81.2912C181.351 81.8179 180.923 82.5354 180.738 83.445Z" fill="white"/>
<path d="M204.437 90.4326H201.185L196.016 84.9049V90.4326H193.293V73.6815H196.016V83.7561L200.907 78.4676H204.235L198.689 84.3305L204.437 90.4326Z" fill="white"/>
<path d="M212.018 90.4326H215.271L220.439 84.9049L221 84.3283L220.439 83.7561L215.548 78.4676H212.22L217.767 84.3305L212.018 90.4326Z" fill="white"/>
<path d="M8.98156 78.7786H5.72939L0.561035 84.3063L0 84.8829L0.561035 85.4551L5.45212 90.7437H8.77991L3.23346 84.8807L8.98156 78.7786Z" fill="white"/>
<path d="M32.5234 73.7292V90.4802H31.1874V75.5955L24.6573 85.8857H24.4305L17.9009 75.5955V90.4802H16.5644V73.7292H18.2286L24.5313 83.6364L30.8345 73.7292H32.5234Z" fill="white"/>
<path d="M37.9943 75.3563C37.7927 75.5317 37.5572 75.6196 37.2885 75.6196C37.0198 75.6196 36.7844 75.5279 36.5827 75.3445C36.3811 75.1611 36.2803 74.9337 36.2803 74.6623C36.2803 74.4071 36.3811 74.1877 36.5827 74.0043C36.7844 73.8209 37.0198 73.7292 37.2885 73.7292C37.5572 73.7292 37.7927 73.8209 37.9943 74.0043C38.196 74.1877 38.2968 74.4071 38.2968 74.6623C38.2968 74.9337 38.196 75.1648 37.9943 75.3563ZM36.6584 90.4802V78.5152H37.9187V90.4802H36.6584Z" fill="white"/>
<path d="M47.5749 90.7437C45.6753 90.7437 44.0958 90.1457 42.835 88.9492C41.5746 87.7527 40.9439 86.2687 40.9439 84.4978C40.9439 82.7269 41.5746 81.2435 42.835 80.047C44.0958 78.8505 45.6753 78.252 47.5749 78.252C48.8019 78.252 49.911 78.5271 50.9027 79.0779C51.8943 79.6281 52.6172 80.3741 53.071 81.3154L52.037 81.8892C51.6674 81.1239 51.0834 80.5173 50.2848 80.0706C49.4868 79.6238 48.5831 79.4007 47.5749 79.4007C46.0619 79.4007 44.793 79.8914 43.7676 80.8723C42.7427 81.8538 42.23 83.0621 42.23 84.4978C42.23 85.9335 42.7427 87.1423 43.7676 88.1233C44.793 89.1047 46.0619 89.5949 47.5749 89.5949C48.5831 89.5949 49.4868 89.3718 50.2848 88.925C51.0834 88.4783 51.6926 87.8722 52.1126 87.1064L53.1718 87.7044C52.6677 88.6301 51.9152 89.3675 50.9155 89.9183C49.9153 90.4685 48.8019 90.7437 47.5749 90.7437Z" fill="white"/>
<path d="M61.7183 78.2519C63.2141 78.2519 64.4036 78.6868 65.2858 79.5562C66.1681 80.4255 66.6095 81.5861 66.6095 83.0379V90.4802H65.3234V83.0379C65.3234 81.9213 65 81.0358 64.3532 80.3815C63.7059 79.7278 62.7942 79.4006 61.6175 79.4006C60.3234 79.4006 59.2642 79.8071 58.4409 80.6213C57.6172 81.4348 57.2053 82.6153 57.2053 84.1625V90.4802H55.9449V73.7292H57.2053V80.7886C58.1132 79.0976 59.6176 78.2519 61.7183 78.2519Z" fill="white"/>
<path d="M81.2571 78.5153H82.5432V90.4803H81.2571V87.7763C80.7192 88.7019 79.9796 89.4276 79.0384 89.9542C78.0972 90.4803 77.0299 90.7437 75.8367 90.7437C74.0384 90.7437 72.5003 90.1414 71.2233 88.9368C69.9458 87.7323 69.3071 86.2526 69.3071 84.4978C69.3071 82.743 69.9458 81.2633 71.2233 80.0588C72.5003 78.8542 74.0384 78.252 75.8367 78.252C77.0299 78.252 78.0972 78.5153 79.0384 79.0419C79.9796 79.5681 80.7192 80.2942 81.2571 81.2193V78.5153ZM72.1308 88.1115C73.1728 89.1004 74.4417 89.5949 75.9375 89.5949C77.4338 89.5949 78.6941 89.1004 79.7195 88.1115C80.7444 87.1225 81.2571 85.9179 81.2571 84.4978C81.2571 83.0782 80.7444 81.8736 79.7195 80.8842C78.6941 79.8952 77.4338 79.4007 75.9375 79.4007C74.4417 79.4007 73.1771 79.8952 72.1431 80.8842C71.1096 81.8736 70.5926 83.0782 70.5926 84.4978C70.5926 85.9179 71.1053 87.1225 72.1308 88.1115Z" fill="white"/>
<path d="M90.0313 79.6398V80.8127L88.1402 82.0328V90.4802H86.8794V82.8705L84.9889 84.0912V82.9183L86.8794 81.6982V73.011H88.1402V80.8604L90.0313 79.6398Z" fill="white"/>
</svg>
